<svg width="459" height="358" viewBox="0 0 459 358" fill="none" xmlns="http://www.w3.org/2000/svg">
<g filter="url(#filter0_d_4_215)">
<path d="M347.527 -39.9086C286.143 8.45946 286.11 131.396 209.641 147.519C109.802 168.571 54.4169 282.754 -36.4986 268C-129.301 252.941 -242.227 204.68 -174.153 79.5322C-108.898 -40.435 -139.955 -166.784 -3.59293 -159.313C98.7381 -153.707 252.021 -445.195 302.609 -356.066C371.904 -233.978 457.792 -126.793 347.527 -39.9086Z" fill="white"/>
<path d="M347.218 -40.3014C331.793 -28.1473 320.242 -11.3252 310.397 7.28107C303.196 20.8912 296.893 35.4873 290.657 49.9298C288.37 55.2239 286.093 60.4973 283.784 65.694C266.532 104.517 247.493 139.027 209.538 147.03C164.535 156.519 128.542 184.879 94.3752 211.801C90.5364 214.826 86.7206 217.832 82.9176 220.792C45.213 250.136 8.80024 274.845 -36.4185 267.507C-82.7961 259.981 -134.102 244.17 -165.311 214.686C-180.902 199.957 -191.468 181.826 -193.917 159.605C-196.366 137.376 -190.7 110.998 -173.714 79.7711C-157.375 49.7333 -147.069 19.3033 -138.67 -9.30827C-136.184 -17.7777 -133.865 -26.0832 -131.608 -34.1709C-126.234 -53.4255 -121.204 -71.4452 -115.071 -87.5013C-106.366 -110.289 -95.4695 -129.026 -78.2986 -141.612C-61.1356 -154.193 -37.6348 -160.677 -3.62028 -158.814C9.29152 -158.106 22.9698 -162.086 37.0986 -169.369C51.2292 -176.653 65.8414 -187.258 80.6321 -199.844C106.944 -222.234 133.874 -250.941 159.711 -278.482C162.917 -281.9 166.106 -285.3 169.276 -288.668C198.006 -319.197 225.062 -347.049 248.082 -361.715C259.594 -369.049 270.02 -373.034 279.094 -372.473C288.118 -371.915 295.912 -366.852 302.174 -355.82C310.586 -341 319.241 -326.399 327.758 -312.033L328.527 -310.738C337.292 -295.952 345.898 -281.416 353.931 -267.134C370.001 -238.567 383.766 -211.045 391.925 -184.639C400.084 -158.235 402.628 -132.976 396.288 -108.921C389.95 -84.8727 374.717 -61.9698 347.218 -40.3014Z" stroke="#FCFCFC"/>
</g>
<g filter="url(#filter1_d_4_215)">
<path d="M303.526 -75.9088C242.142 -27.5407 242.109 95.3956 165.64 111.519C65.8006 132.57 43.6866 227.819 -47.229 213.066C-140.031 198.006 -286.228 168.68 -218.154 43.5321C-152.899 -76.4351 -183.956 -202.784 -47.5939 -195.313C54.7372 -189.707 208.02 -481.195 258.608 -392.066C327.903 -269.978 413.791 -162.793 303.526 -75.9088Z" fill="white"/>
<path d="M303.217 -76.3015C287.792 -64.1475 276.241 -47.3254 266.397 -28.7191C259.195 -15.109 252.892 -0.512839 246.656 13.9297C244.369 19.2237 242.092 24.4972 239.783 29.6938C222.531 68.5172 203.492 103.027 165.537 111.03C120.056 120.62 90.6491 145.572 63.6449 168.487C60.9228 170.796 58.2252 173.085 55.538 175.336C26.1829 199.92 -1.92212 219.911 -47.1489 212.572C-93.5685 205.039 -153.214 193.953 -192.754 169.158C-212.512 156.769 -227.195 140.99 -232.734 120.57C-238.272 100.151 -234.696 74.9883 -217.715 43.771C-201.376 13.7332 -191.07 -16.6968 -182.671 -45.3084C-180.185 -53.7778 -177.866 -62.0834 -175.609 -70.1711C-170.235 -89.4256 -165.205 -107.445 -159.072 -123.501C-150.367 -146.289 -139.47 -165.026 -122.3 -177.613C-105.136 -190.193 -81.6358 -196.678 -47.6212 -194.814C-34.7094 -194.107 -21.0311 -198.086 -6.90235 -205.369C7.22825 -212.653 21.8405 -223.258 36.6312 -235.844C62.9431 -258.233 89.873 -286.941 115.709 -314.482C118.915 -317.9 122.105 -321.3 125.275 -324.668C154.005 -355.197 181.061 -383.05 204.081 -397.715C215.593 -405.049 226.019 -409.034 235.093 -408.473C244.117 -407.915 251.911 -402.852 258.173 -391.82C266.585 -377 275.24 -362.4 283.758 -348.033L284.526 -346.738C293.291 -331.952 301.897 -317.416 309.93 -303.134C326 -274.567 339.765 -247.045 347.924 -220.639C356.083 -194.235 358.627 -168.976 352.287 -144.922C345.949 -120.873 330.716 -97.97 303.217 -76.3015Z" stroke="#FCFCFC"/>
</g>
<g filter="url(#filter2_d_4_215)">
<path d="M259.526 -113.909C198.142 -65.5407 198.109 57.3956 121.64 73.5191C21.8006 94.5704 -0.313437 189.819 -91.229 175.066C-184.031 160.006 -330.228 130.68 -262.154 5.53206C-196.899 -114.435 -227.956 -240.784 -91.5939 -233.313C10.7372 -227.707 164.02 -519.195 214.608 -430.066C283.903 -307.978 369.791 -200.793 259.526 -113.909Z" fill="white"/>
<path d="M259.217 -114.302C243.792 -102.147 232.241 -85.3254 222.397 -66.7191C215.195 -53.109 208.892 -38.5128 202.656 -24.0703C200.369 -18.7763 198.092 -13.5028 195.783 -8.30618C178.531 30.5172 159.492 65.027 121.537 73.0299C76.0556 82.6196 46.6491 107.572 19.6449 130.487C16.9228 132.796 14.2252 135.085 11.538 137.336C-17.8171 161.92 -45.9221 181.911 -91.1489 174.572C-137.569 167.039 -197.214 155.953 -236.754 131.158C-256.512 118.769 -271.195 102.99 -276.734 82.5699C-282.272 62.1513 -278.696 36.9883 -261.715 5.77098C-245.376 -24.2668 -235.07 -54.6968 -226.671 -83.3084C-224.185 -91.7778 -221.866 -100.083 -219.609 -108.171C-214.235 -127.426 -209.205 -145.445 -203.072 -161.501C-194.367 -184.289 -183.47 -203.026 -166.3 -215.613C-149.136 -228.193 -125.636 -234.678 -91.6212 -232.814C-78.7094 -232.107 -65.0311 -236.086 -50.9023 -243.369C-36.7718 -250.653 -22.1595 -261.258 -7.36883 -273.844C18.9431 -296.233 45.873 -324.941 71.7089 -352.482C74.9155 -355.9 78.1052 -359.3 81.2748 -362.668C110.005 -393.197 137.061 -421.05 160.081 -435.715C171.593 -443.049 182.019 -447.034 191.093 -446.473C200.117 -445.915 207.911 -440.852 214.173 -429.82C222.585 -415 231.24 -400.4 239.758 -386.033L240.526 -384.738C249.291 -369.952 257.897 -355.416 265.93 -341.134C282 -312.567 295.765 -285.045 303.924 -258.639C312.083 -232.235 314.627 -206.976 308.287 -182.922C301.949 -158.873 286.716 -135.97 259.217 -114.302Z" stroke="#FCFCFC"/>
</g>
<defs>
<filter id="filter0_d_4_215" x="-213.961" y="-390.025" width="641.307" height="688.336" filterUnits="userSpaceOnUse" color-interpolation-filters="sRGB">
<feFlood flood-opacity="0" result="BackgroundImageFix"/>
<feColorMatrix in="SourceAlpha" type="matrix" values="0 0 0 0 0 0 0 0 0 0 0 0 0 0 0 0 0 0 127 0" result="hardAlpha"/>
<feMorphology radius="2" operator="erode" in="SourceAlpha" result="effect1_dropShadow_4_215"/>
<feOffset dx="4" dy="6"/>
<feGaussianBlur stdDeviation="12.5"/>
<feColorMatrix type="matrix" values="0 0 0 0 0.466667 0 0 0 0 0.545098 0 0 0 0 0.647059 0 0 0 0.06 0"/>
<feBlend mode="normal" in2="BackgroundImageFix" result="effect1_dropShadow_4_215"/>
<feBlend mode="normal" in="SourceGraphic" in2="effect1_dropShadow_4_215" result="shape"/>
</filter>
<filter id="filter1_d_4_215" x="-254.649" y="-426.025" width="637.994" height="669.636" filterUnits="userSpaceOnUse" color-interpolation-filters="sRGB">
<feFlood flood-opacity="0" result="BackgroundImageFix"/>
<feColorMatrix in="SourceAlpha" type="matrix" values="0 0 0 0 0 0 0 0 0 0 0 0 0 0 0 0 0 0 127 0" result="hardAlpha"/>
<feMorphology radius="2" operator="erode" in="SourceAlpha" result="effect1_dropShadow_4_215"/>
<feOffset dx="4" dy="6"/>
<feGaussianBlur stdDeviation="12.5"/>
<feColorMatrix type="matrix" values="0 0 0 0 0.466667 0 0 0 0 0.545098 0 0 0 0 0.647059 0 0 0 0.06 0"/>
<feBlend mode="normal" in2="BackgroundImageFix" result="effect1_dropShadow_4_215"/>
<feBlend mode="normal" in="SourceGraphic" in2="effect1_dropShadow_4_215" result="shape"/>
</filter>
<filter id="filter2_d_4_215" x="-298.649" y="-464.025" width="637.994" height="669.635" filterUnits="userSpaceOnUse" color-interpolation-filters="sRGB">
<feFlood flood-opacity="0" result="BackgroundImageFix"/>
<feColorMatrix in="SourceAlpha" type="matrix" values="0 0 0 0 0 0 0 0 0 0 0 0 0 0 0 0 0 0 127 0" result="hardAlpha"/>
<feMorphology radius="2" operator="erode" in="SourceAlpha" result="effect1_dropShadow_4_215"/>
<feOffset dx="4" dy="6"/>
<feGaussianBlur stdDeviation="12.5"/>
<feColorMatrix type="matrix" values="0 0 0 0 0.466667 0 0 0 0 0.545098 0 0 0 0 0.647059 0 0 0 0.06 0"/>
<feBlend mode="normal" in2="BackgroundImageFix" result="effect1_dropShadow_4_215"/>
<feBlend mode="normal" in="SourceGraphic" in2="effect1_dropShadow_4_215" result="shape"/>
</filter>
</defs>
</svg>
