<svg width="24" height="24" viewBox="0 0 24 24" fill="none" xmlns="http://www.w3.org/2000/svg">
<path d="M11.1619 20.145C10.4212 19.5507 3.54374 12.8625 3.46686 12.7894C3.16311 12.4857 2.97186 12.1707 2.91936 11.8819C2.86499 11.5819 2.95686 11.3194 3.20061 11.0757C3.42749 10.8488 3.70499 10.7288 4.00311 10.7288C4.36686 10.7288 4.73999 10.9013 5.05124 11.2144L8.16936 14.2107C8.22374 14.2632 8.29499 14.2894 8.36436 14.2894C8.41958 14.2895 8.47361 14.2733 8.51965 14.2428C8.56569 14.2123 8.60169 14.1689 8.62313 14.118C8.64457 14.0672 8.65049 14.0111 8.64014 13.9568C8.6298 13.9026 8.60365 13.8526 8.56499 13.8132L3.58686 8.67191C3.08811 8.17316 2.85374 7.41004 3.44624 6.81754C3.67311 6.59066 3.95061 6.47066 4.24874 6.47066C4.61249 6.47066 4.98561 6.64316 5.29686 6.95629L10.3894 11.9213C10.4437 11.9738 10.515 12.0019 10.5862 12.0019C10.6575 12.0019 10.7306 11.9738 10.785 11.9194C10.8937 11.8107 10.8956 11.6344 10.7869 11.5238L4.67061 5.25379C4.38749 4.97066 4.21686 4.63129 4.18686 4.30129C4.15874 3.96566 4.27686 3.65441 4.52999 3.40129C4.75686 3.17441 5.03436 3.05441 5.33249 3.05441C5.69624 3.05441 6.06936 3.22691 6.38061 3.53816L12.6187 9.62066C12.6731 9.67316 12.7444 9.70129 12.8156 9.70129C12.8869 9.70129 12.96 9.67316 13.0144 9.61879C13.1231 9.51004 13.125 9.33379 13.0162 9.22316L8.48624 4.56754C8.20124 4.28254 8.03061 3.94504 8.00249 3.61504C7.97436 3.27941 8.09249 2.96816 8.34561 2.71504C8.57249 2.48816 8.84999 2.36816 9.14811 2.36816C9.51186 2.36816 9.88499 2.54066 10.1962 2.85379C11.8575 4.48504 16.1944 8.75066 16.3406 8.90816C16.8975 9.29254 17.01 8.71129 17.0381 8.33441C17.07 7.89566 16.5675 6.36379 16.86 4.98566C17.3512 3.15379 18.7669 3.45379 18.7987 3.46879C19.575 3.83254 19.4269 4.37629 19.1512 5.46941L19.1231 5.68504C18.8344 7.11379 20.8181 11.3475 20.9644 11.6644C21.7425 13.3669 22.6387 16.8188 19.6706 19.7869C16.4175 23.04 12.39 21.3732 11.1619 20.145Z" fill="url(#paint0_radial_4_172)"/>
<path d="M15.3356 21.9713C13.3406 21.9713 11.6437 21.0169 10.9743 20.355C10.3725 19.8638 6.57372 16.1963 3.47997 13.1944C3.35435 13.0725 3.28122 13.0032 3.27372 12.9938C2.9231 12.6432 2.7056 12.2775 2.64372 11.9325C2.57247 11.5407 2.69435 11.1863 3.00185 10.8769C3.2831 10.5957 3.6281 10.4475 4.0031 10.4475C4.44372 10.4475 4.88622 10.65 5.24997 11.0157L8.36435 14.0082L3.38435 8.86691C2.8106 8.29316 2.52185 7.34254 3.24747 6.61879C3.52872 6.33754 3.87372 6.18941 4.24872 6.18941C4.68935 6.18941 5.13185 6.39191 5.4956 6.75754L10.5843 11.7188L4.46997 5.45066C4.14372 5.12441 3.9431 4.72504 3.90747 4.32754C3.87185 3.90379 4.0181 3.51566 4.33122 3.20254C4.61247 2.92129 4.95747 2.77316 5.33247 2.77316C5.77122 2.77316 6.21372 2.97379 6.57935 3.33941L12.8156 9.42004L8.2856 4.76441C7.95747 4.43629 7.75685 4.03691 7.7231 3.63941C7.68747 3.21754 7.83372 2.82941 8.14685 2.51629C8.4281 2.23504 8.7731 2.08691 9.1481 2.08691C9.58872 2.08691 10.0312 2.28941 10.395 2.65504L11.7468 3.98066C14.1562 6.34316 16.17 8.32129 16.3856 8.54254C16.4906 8.62691 16.6275 8.65879 16.6856 8.63066C16.7231 8.61191 16.7643 8.52566 16.7568 8.34379C16.7456 8.02504 16.7006 7.62941 16.6537 7.21129C16.56 6.37129 16.4625 5.50129 16.5843 4.92754C16.8506 3.93191 17.3737 3.51004 17.7637 3.32816C18.3 3.08066 18.8193 3.16691 18.9187 3.21379C19.8937 3.67129 19.7006 4.43629 19.4343 5.49754L19.4287 5.52379L19.3987 5.74316C19.2037 6.70316 20.205 9.35629 21.2062 11.5182L21.2212 11.5482C21.8906 13.0107 23.0962 16.7625 19.8712 19.9875C18.3881 21.4669 16.7831 21.9713 15.3356 21.9713ZM4.0031 11.01C3.78185 11.01 3.57185 11.1019 3.39935 11.2744C3.22122 11.4525 3.15935 11.625 3.19685 11.8313C3.2381 12.0582 3.40497 12.3282 3.6656 12.5907C3.66747 12.5925 3.74247 12.6657 3.87185 12.7894C8.2631 17.0513 10.9143 19.5844 11.3381 19.9257L11.3606 19.9463C12.3956 20.9813 16.2412 22.8188 19.4718 19.5882C22.4475 16.6125 21.3281 13.1382 20.7075 11.7807L20.6943 11.7525C20.0493 10.3613 18.5831 6.98629 18.8437 5.64004L18.8868 5.35879C19.1756 4.21129 19.1925 3.97129 18.7031 3.73504C18.5587 3.70879 17.5237 3.58316 17.1281 5.05879C17.0287 5.52941 17.1243 6.39004 17.2087 7.14941C17.2575 7.57879 17.3025 7.98566 17.3137 8.32504C17.3325 8.85941 17.0793 9.06379 16.9256 9.13879C16.6125 9.29066 16.2393 9.16129 16.0068 8.96629L15.9825 8.94379C15.8681 8.82004 13.1475 6.15191 11.3475 4.38566L9.99372 3.05629C9.53247 2.59316 8.9381 2.51629 8.53872 2.91566C8.34372 3.11066 8.2556 3.33941 8.27622 3.59254C8.29872 3.85691 8.44122 4.13254 8.67935 4.37066L13.2187 9.02629C13.3219 9.13237 13.3793 9.27471 13.3786 9.42268C13.3779 9.57065 13.3191 9.71244 13.215 9.81754C13.0068 10.0257 12.6393 10.0294 12.4256 9.82316L6.18372 3.73879C5.72247 3.27754 5.12622 3.20066 4.72872 3.60004C4.53372 3.79504 4.4456 4.02379 4.46622 4.27691C4.4906 4.54129 4.6331 4.81879 4.86935 5.05316L10.9875 11.3269C11.2031 11.5444 11.2012 11.9007 10.9837 12.1182C10.7756 12.3263 10.4081 12.33 10.1943 12.1238L5.09997 7.15691C4.63872 6.69191 4.04247 6.61691 3.64497 7.01629C3.15935 7.50191 3.4181 8.10379 3.7856 8.47316L8.76747 13.6182C8.87033 13.7238 8.92742 13.8657 8.92637 14.0131C8.92532 14.1605 8.8662 14.3015 8.76185 14.4057C8.55185 14.6157 8.1881 14.6175 7.97435 14.4132L4.85622 11.4169C4.59372 11.1525 4.29185 11.01 4.0031 11.01Z" fill="#EDA600"/>
<path d="M15.8925 8.72632C14.8631 10.8282 14.9963 13.7701 16.5413 16.1307C16.7156 16.4494 17.0138 16.2938 16.8619 15.9657C14.9963 11.9738 16.9519 9.09757 16.9519 9.09757L15.8925 8.72632Z" fill="#EDA600"/>
<path d="M11.8444 0.843804C12.4106 0.695679 13.0144 0.708804 13.6012 0.845679C14.1844 0.986304 14.7675 1.28255 15.2006 1.7663C15.6244 2.2463 15.885 2.82943 15.9731 3.44068C16.0556 4.0463 15.9787 4.67068 15.6919 5.18818C15.6581 4.60693 15.5569 4.07255 15.3862 3.57943C15.2981 3.3338 15.195 3.09943 15.0694 2.87818C14.9456 2.6588 14.7994 2.4413 14.6437 2.26318C14.3269 1.89755 13.8975 1.61255 13.4156 1.3913C12.9319 1.16255 12.405 0.993804 11.8444 0.843804Z" fill="#B0BEC5"/>
<path d="M12 2.62124C12.3131 2.42249 12.705 2.38124 13.0744 2.44687C13.4475 2.51249 13.8038 2.69812 14.085 2.95499C14.3644 3.21562 14.5631 3.54374 14.6869 3.88499C14.7469 4.05562 14.7769 4.23562 14.805 4.40999C14.8144 4.58999 14.8144 4.76999 14.7863 4.94999C14.6569 4.81312 14.5556 4.67624 14.46 4.54312C14.3494 4.41749 14.2631 4.28437 14.1638 4.16249C13.9688 3.92062 13.7794 3.70124 13.575 3.50624C13.365 3.31687 13.1438 3.14999 12.8869 3.00562C12.6319 2.85749 12.345 2.73374 12 2.62124Z" fill="#90A4AE"/>
<path d="M1.28062 14.5015C1.545 15.019 1.82062 15.499 2.14125 15.9227C2.46 16.3465 2.82562 16.7065 3.25125 16.9408C3.4575 17.0552 3.70312 17.1546 3.94312 17.2296C4.185 17.3065 4.43625 17.359 4.695 17.3946C5.2125 17.4583 5.75625 17.4471 6.33187 17.359C5.88562 17.7471 5.28937 17.9533 4.68187 17.9983C4.06687 18.0396 3.4425 17.9065 2.88375 17.5915C2.32125 17.2708 1.90875 16.7608 1.65 16.219C1.39125 15.6733 1.2525 15.0865 1.28062 14.5015Z" fill="#B0BEC5"/>
<path d="M3.05248 14.282C3.23436 14.597 3.41436 14.8501 3.61123 15.0714C3.80623 15.2926 4.01623 15.4745 4.24498 15.6395C4.47748 15.7989 4.73248 15.9395 5.00998 16.0801C5.14873 16.1514 5.29686 16.2076 5.44311 16.2901C5.59498 16.3557 5.74873 16.4251 5.90998 16.5245C5.73936 16.5882 5.56498 16.6257 5.38686 16.6539C5.21061 16.6614 5.02873 16.6707 4.84873 16.6464C4.48873 16.5976 4.12873 16.472 3.81373 16.2526C3.50436 16.0295 3.24748 15.7201 3.10686 15.3695C2.96436 15.0207 2.92311 14.6307 3.05248 14.282Z" fill="#90A4AE"/>
<defs>
<radialGradient id="paint0_radial_4_172" cx="0" cy="0" r="1" gradientUnits="userSpaceOnUse" gradientTransform="translate(8.25871 7.12515) rotate(-45) scale(17.064)">
<stop offset="0.353" stop-color="#FFCA28"/>
<stop offset="0.872" stop-color="#FFB300"/>
</radialGradient>
</defs>
</svg>
