<svg width="147" height="64" viewBox="0 0 147 64" fill="none" xmlns="http://www.w3.org/2000/svg">
<path d="M19.5299 52.773C23.7897 52.773 27.3624 51.7166 30.2481 49.6039C33.151 47.4911 35.195 44.6312 36.3802 41.0241L29.3206 39.066C28.6335 41.2989 27.4741 43.0424 25.8423 44.2963C24.2105 45.5502 22.1064 46.1771 19.5299 46.1771C16.0087 46.1771 13.3549 45.0263 11.5685 42.7246C9.79929 40.4057 8.91469 37.3139 8.91469 33.4492C8.91469 29.5844 9.79929 26.5012 11.5685 24.1996C13.3549 21.8807 16.0087 20.7213 19.5299 20.7213C22.1064 20.7213 24.2105 21.3482 25.8423 22.6021C27.4741 23.8389 28.6335 25.5823 29.3206 27.8324L36.3802 25.8743C35.195 22.2672 33.151 19.4073 30.2481 17.2945C27.3624 15.1818 23.7897 14.1255 19.5299 14.1255C15.8197 14.1255 12.6163 14.9328 9.91953 16.5474C7.23997 18.162 5.17018 20.4207 3.71016 23.3236C2.26732 26.2264 1.5459 29.6016 1.5459 33.4492C1.5459 37.2968 2.26732 40.672 3.71016 43.5748C5.17018 46.4777 7.23997 48.7364 9.91953 50.351C12.6163 51.9656 15.8197 52.773 19.5299 52.773Z" fill="#E6E6E6"/>
<path d="M19.81 46.525C22.7267 46.525 25.1242 45.7842 27.0025 44.3025C28.8925 42.8092 30.1933 40.8142 30.905 38.3175L27.7375 37.4775C27.2242 39.3442 26.3025 40.8258 24.9725 41.9225C23.6542 43.0075 21.9333 43.55 19.81 43.55C17.9317 43.55 16.3625 43.1242 15.1025 42.2725C13.8425 41.4208 12.8975 40.2308 12.2675 38.7025C11.6375 37.1742 11.3283 35.4067 11.34 33.4C11.3517 31.3817 11.6725 29.6142 12.3025 28.0975C12.9325 26.5692 13.8717 25.3792 15.12 24.5275C16.3683 23.6758 17.9317 23.25 19.81 23.25C21.9333 23.25 23.6542 23.7925 24.9725 24.8775C26.3025 25.9625 27.2242 27.4442 27.7375 29.3225L30.905 28.4825C30.1933 25.9742 28.8925 23.9792 27.0025 22.4975C25.1242 21.0158 22.7267 20.275 19.81 20.275C17.3017 20.275 15.1667 20.8292 13.405 21.9375C11.655 23.0458 10.325 24.5858 9.415 26.5575C8.505 28.5292 8.05 30.81 8.05 33.4C8.05 35.99 8.505 38.2708 9.415 40.2425C10.325 42.2142 11.655 43.7542 13.405 44.8625C15.1667 45.9708 17.3017 46.525 19.81 46.525ZM40.3498 46H43.4823V36.515C43.4823 35.395 43.634 34.3158 43.9373 33.2775C44.2406 32.2392 44.8531 31.3933 45.7748 30.74C46.4281 30.2617 47.1456 29.9817 47.9273 29.9C48.7206 29.8183 49.444 29.8592 50.0973 30.0225V27.1C49.2573 26.9133 48.3356 26.9133 47.3323 27.1C46.329 27.2867 45.4656 27.6717 44.7423 28.255C44.1123 28.6983 43.5756 29.3108 43.1323 30.0925V27.1H40.3498V46ZM60.5547 46.525C62.3863 46.525 64.0372 46.07 65.5072 45.16C66.9772 44.2383 68.0855 42.9433 68.8322 41.275L65.8397 40.2425C64.7547 42.4592 62.9463 43.5675 60.4147 43.5675C58.6763 43.5675 57.3113 43.0367 56.3197 41.975C55.3397 40.9017 54.7855 39.385 54.6572 37.425H69.1472C69.2405 35.185 68.9488 33.2542 68.2722 31.6325C67.6072 30.0108 66.6038 28.7625 65.2622 27.8875C63.9322 27.0125 62.3163 26.575 60.4147 26.575C58.583 26.575 56.9847 26.9892 55.6197 27.8175C54.2547 28.6342 53.193 29.8008 52.4347 31.3175C51.688 32.8225 51.3147 34.6075 51.3147 36.6725C51.3147 38.6442 51.6938 40.3708 52.4522 41.8525C53.2222 43.3225 54.3013 44.4717 55.6897 45.3C57.078 46.1167 58.6997 46.525 60.5547 46.525ZM60.5197 29.375C63.728 29.375 65.5247 31.2242 65.9097 34.9225H54.7097C54.9313 33.1258 55.5322 31.755 56.5122 30.81C57.4922 29.8533 58.828 29.375 60.5197 29.375ZM77.3741 46.525C80.5241 46.525 82.8574 45.37 84.3741 43.06V46H87.1391V34.31C87.1391 33.5633 87.1041 32.8517 87.0341 32.175C86.9641 31.4867 86.7949 30.8508 86.5266 30.2675C85.9899 29.0308 85.1032 28.1092 83.8666 27.5025C82.6299 26.8842 81.1599 26.575 79.4566 26.575C77.3216 26.575 75.5949 27.0475 74.2766 27.9925C72.9699 28.9375 72.0949 30.2383 71.6516 31.895L74.6091 32.7875C74.9474 31.6325 75.5482 30.7925 76.4116 30.2675C77.2749 29.7425 78.2782 29.48 79.4216 29.48C81.0549 29.48 82.2274 29.8475 82.9391 30.5825C83.6624 31.3058 84.0416 32.42 84.0766 33.925C82.6766 34.1233 81.2066 34.3333 79.6666 34.555C78.1382 34.765 76.7791 35.0275 75.5891 35.3425C74.1541 35.7625 73.0224 36.4217 72.1941 37.32C71.3657 38.2067 70.9516 39.3967 70.9516 40.89C70.9516 41.905 71.1907 42.8383 71.6691 43.69C72.1591 44.5417 72.8766 45.23 73.8216 45.755C74.7782 46.2683 75.9624 46.525 77.3741 46.525ZM77.8466 43.9175C76.5049 43.9175 75.5366 43.6083 74.9416 42.99C74.3466 42.36 74.0491 41.6542 74.0491 40.8725C74.0491 39.9858 74.3407 39.3092 74.9241 38.8425C75.5191 38.3642 76.2074 38.0025 76.9891 37.7575C77.9107 37.5008 78.9841 37.285 80.2091 37.11C81.4341 36.935 82.7116 36.76 84.0416 36.585C84.0416 37.0167 84.0182 37.5067 83.9716 38.055C83.9366 38.6033 83.8549 39.105 83.7266 39.56C83.5049 40.7267 82.8866 41.7475 81.8716 42.6225C80.8682 43.4858 79.5266 43.9175 77.8466 43.9175ZM101.542 46V43.3225C100.247 43.5208 99.1382 43.5558 98.2166 43.4275C97.3066 43.2992 96.6416 42.8617 96.2216 42.115C95.9999 41.7183 95.8774 41.2517 95.8541 40.715C95.8424 40.1667 95.8366 39.5017 95.8366 38.72V29.6725H101.542V27.1H95.8366V21.85H92.7216V27.1H88.8891V29.6725H92.7216V38.86C92.7216 39.84 92.7332 40.715 92.7566 41.485C92.7916 42.2433 92.9957 42.99 93.3691 43.725C93.8124 44.5767 94.4599 45.2067 95.3116 45.615C96.1632 46.0117 97.1316 46.2275 98.2166 46.2625C99.3132 46.3092 100.422 46.2217 101.542 46ZM105.029 23.7575H108.144V20.5375H105.029V23.7575ZM105.029 46H108.144V27.1H105.029V46ZM114.497 46H117.612V29.6725H122.582V27.1H117.612V25.5775C117.612 23.7692 118.528 22.865 120.36 22.865H122.582V20.275H120.185C119.473 20.275 118.709 20.345 117.892 20.485C117.075 20.6133 116.34 21.0333 115.687 21.745C115.127 22.3517 114.789 23.0458 114.672 23.8275C114.555 24.5975 114.497 25.3442 114.497 26.0675V27.1H111.295V29.6725H114.497V46ZM127.3 54.4H130.328L140.618 27.1H137.45L131.92 41.975L126.023 27.1H122.75L130.415 45.93L127.3 54.4ZM140.565 46H143.995V42.57H140.565V46Z" fill="#111111"/>
</svg>
